<svg xmlns="http://www.w3.org/2000/svg" width="640" height="640" viewBox="0 0 37 37" role="img" aria-label="QR code for Buy Me a Coffee CaseyCZ">
<defs><linearGradient id="g" x1="0" y1="0" x2="37" y2="37" gradientUnits="userSpaceOnUse"><stop offset="0" stop-color="#b72bd8"/><stop offset="1" stop-color="#3b82f6"/></linearGradient></defs>
<rect width="37" height="37" fill="#fff"/>
<path d="M4,4h1v1h-1zM5,4h1v1h-1zM6,4h1v1h-1zM7,4h1v1h-1zM8,4h1v1h-1zM9,4h1v1h-1zM10,4h1v1h-1zM12,4h1v1h-1zM13,4h1v1h-1zM15,4h1v1h-1zM17,4h1v1h-1zM18,4h1v1h-1zM19,4h1v1h-1zM20,4h1v1h-1zM22,4h1v1h-1zM26,4h1v1h-1zM27,4h1v1h-1zM28,4h1v1h-1zM29,4h1v1h-1zM30,4h1v1h-1zM31,4h1v1h-1zM32,4h1v1h-1zM4,5h1v1h-1zM10,5h1v1h-1zM12,5h1v1h-1zM13,5h1v1h-1zM15,5h1v1h-1zM18,5h1v1h-1zM20,5h1v1h-1zM23,5h1v1h-1zM24,5h1v1h-1zM26,5h1v1h-1zM32,5h1v1h-1zM4,6h1v1h-1zM6,6h1v1h-1zM7,6h1v1h-1zM8,6h1v1h-1zM10,6h1v1h-1zM14,6h1v1h-1zM15,6h1v1h-1zM17,6h1v1h-1zM19,6h1v1h-1zM21,6h1v1h-1zM23,6h1v1h-1zM24,6h1v1h-1zM26,6h1v1h-1zM28,6h1v1h-1zM29,6h1v1h-1zM30,6h1v1h-1zM32,6h1v1h-1zM4,7h1v1h-1zM6,7h1v1h-1zM7,7h1v1h-1zM8,7h1v1h-1zM10,7h1v1h-1zM12,7h1v1h-1zM14,7h1v1h-1zM16,7h1v1h-1zM17,7h1v1h-1zM19,7h1v1h-1zM20,7h1v1h-1zM21,7h1v1h-1zM24,7h1v1h-1zM26,7h1v1h-1zM28,7h1v1h-1zM29,7h1v1h-1zM30,7h1v1h-1zM32,7h1v1h-1zM4,8h1v1h-1zM6,8h1v1h-1zM7,8h1v1h-1zM8,8h1v1h-1zM10,8h1v1h-1zM12,8h1v1h-1zM13,8h1v1h-1zM14,8h1v1h-1zM15,8h1v1h-1zM16,8h1v1h-1zM18,8h1v1h-1zM20,8h1v1h-1zM21,8h1v1h-1zM22,8h1v1h-1zM23,8h1v1h-1zM24,8h1v1h-1zM26,8h1v1h-1zM28,8h1v1h-1zM29,8h1v1h-1zM30,8h1v1h-1zM32,8h1v1h-1zM4,9h1v1h-1zM10,9h1v1h-1zM12,9h1v1h-1zM14,9h1v1h-1zM15,9h1v1h-1zM16,9h1v1h-1zM18,9h1v1h-1zM20,9h1v1h-1zM23,9h1v1h-1zM24,9h1v1h-1zM26,9h1v1h-1zM32,9h1v1h-1zM4,10h1v1h-1zM5,10h1v1h-1zM6,10h1v1h-1zM7,10h1v1h-1zM8,10h1v1h-1zM9,10h1v1h-1zM10,10h1v1h-1zM12,10h1v1h-1zM14,10h1v1h-1zM16,10h1v1h-1zM18,10h1v1h-1zM20,10h1v1h-1zM22,10h1v1h-1zM24,10h1v1h-1zM26,10h1v1h-1zM27,10h1v1h-1zM28,10h1v1h-1zM29,10h1v1h-1zM30,10h1v1h-1zM31,10h1v1h-1zM32,10h1v1h-1zM12,11h1v1h-1zM13,11h1v1h-1zM16,11h1v1h-1zM18,11h1v1h-1zM19,11h1v1h-1zM20,11h1v1h-1zM22,11h1v1h-1zM23,11h1v1h-1zM24,11h1v1h-1zM4,12h1v1h-1zM5,12h1v1h-1zM6,12h1v1h-1zM7,12h1v1h-1zM9,12h1v1h-1zM10,12h1v1h-1zM12,12h1v1h-1zM14,12h1v1h-1zM15,12h1v1h-1zM16,12h1v1h-1zM17,12h1v1h-1zM18,12h1v1h-1zM19,12h1v1h-1zM20,12h1v1h-1zM22,12h1v1h-1zM24,12h1v1h-1zM27,12h1v1h-1zM29,12h1v1h-1zM30,12h1v1h-1zM31,12h1v1h-1zM4,13h1v1h-1zM5,13h1v1h-1zM8,13h1v1h-1zM12,13h1v1h-1zM13,13h1v1h-1zM14,13h1v1h-1zM16,13h1v1h-1zM17,13h1v1h-1zM18,13h1v1h-1zM20,13h1v1h-1zM21,13h1v1h-1zM22,13h1v1h-1zM23,13h1v1h-1zM26,13h1v1h-1zM27,13h1v1h-1zM29,13h1v1h-1zM30,13h1v1h-1zM31,13h1v1h-1zM32,13h1v1h-1zM5,14h1v1h-1zM6,14h1v1h-1zM7,14h1v1h-1zM9,14h1v1h-1zM10,14h1v1h-1zM12,14h1v1h-1zM14,14h1v1h-1zM15,14h1v1h-1zM18,14h1v1h-1zM19,14h1v1h-1zM21,14h1v1h-1zM22,14h1v1h-1zM23,14h1v1h-1zM24,14h1v1h-1zM26,14h1v1h-1zM27,14h1v1h-1zM29,14h1v1h-1zM31,14h1v1h-1zM32,14h1v1h-1zM4,15h1v1h-1zM8,15h1v1h-1zM13,15h1v1h-1zM16,15h1v1h-1zM18,15h1v1h-1zM20,15h1v1h-1zM23,15h1v1h-1zM26,15h1v1h-1zM28,15h1v1h-1zM30,15h1v1h-1zM4,16h1v1h-1zM6,16h1v1h-1zM7,16h1v1h-1zM9,16h1v1h-1zM10,16h1v1h-1zM11,16h1v1h-1zM12,16h1v1h-1zM14,16h1v1h-1zM18,16h1v1h-1zM21,16h1v1h-1zM22,16h1v1h-1zM24,16h1v1h-1zM26,16h1v1h-1zM27,16h1v1h-1zM28,16h1v1h-1zM30,16h1v1h-1zM31,16h1v1h-1zM32,16h1v1h-1zM4,17h1v1h-1zM5,17h1v1h-1zM6,17h1v1h-1zM8,17h1v1h-1zM9,17h1v1h-1zM10,17h1v1h-1zM13,17h1v1h-1zM15,17h1v1h-1zM19,17h1v1h-1zM21,17h1v1h-1zM22,17h1v1h-1zM23,17h1v1h-1zM24,17h1v1h-1zM28,17h1v1h-1zM29,17h1v1h-1zM30,17h1v1h-1zM31,17h1v1h-1zM5,18h1v1h-1zM6,18h1v1h-1zM8,18h1v1h-1zM12,18h1v1h-1zM13,18h1v1h-1zM14,18h1v1h-1zM16,18h1v1h-1zM17,18h1v1h-1zM18,18h1v1h-1zM20,18h1v1h-1zM21,18h1v1h-1zM22,18h1v1h-1zM23,18h1v1h-1zM24,18h1v1h-1zM26,18h1v1h-1zM28,18h1v1h-1zM29,18h1v1h-1zM30,18h1v1h-1zM31,18h1v1h-1zM32,18h1v1h-1zM4,19h1v1h-1zM6,19h1v1h-1zM7,19h1v1h-1zM9,19h1v1h-1zM10,19h1v1h-1zM11,19h1v1h-1zM14,19h1v1h-1zM18,19h1v1h-1zM20,19h1v1h-1zM22,19h1v1h-1zM24,19h1v1h-1zM27,19h1v1h-1zM29,19h1v1h-1zM32,19h1v1h-1zM4,20h1v1h-1zM5,20h1v1h-1zM7,20h1v1h-1zM8,20h1v1h-1zM12,20h1v1h-1zM13,20h1v1h-1zM15,20h1v1h-1zM16,20h1v1h-1zM17,20h1v1h-1zM20,20h1v1h-1zM21,20h1v1h-1zM23,20h1v1h-1zM24,20h1v1h-1zM27,20h1v1h-1zM28,20h1v1h-1zM31,20h1v1h-1zM32,20h1v1h-1zM5,21h1v1h-1zM6,21h1v1h-1zM7,21h1v1h-1zM9,21h1v1h-1zM10,21h1v1h-1zM11,21h1v1h-1zM13,21h1v1h-1zM14,21h1v1h-1zM15,21h1v1h-1zM18,21h1v1h-1zM19,21h1v1h-1zM21,21h1v1h-1zM24,21h1v1h-1zM26,21h1v1h-1zM27,21h1v1h-1zM28,21h1v1h-1zM29,21h1v1h-1zM30,21h1v1h-1zM4,22h1v1h-1zM6,22h1v1h-1zM8,22h1v1h-1zM10,22h1v1h-1zM11,22h1v1h-1zM13,22h1v1h-1zM15,22h1v1h-1zM16,22h1v1h-1zM19,22h1v1h-1zM21,22h1v1h-1zM22,22h1v1h-1zM24,22h1v1h-1zM26,22h1v1h-1zM27,22h1v1h-1zM30,22h1v1h-1zM31,22h1v1h-1zM32,22h1v1h-1zM4,23h1v1h-1zM5,23h1v1h-1zM8,23h1v1h-1zM12,23h1v1h-1zM13,23h1v1h-1zM14,23h1v1h-1zM15,23h1v1h-1zM18,23h1v1h-1zM20,23h1v1h-1zM21,23h1v1h-1zM23,23h1v1h-1zM24,23h1v1h-1zM26,23h1v1h-1zM28,23h1v1h-1zM29,23h1v1h-1zM32,23h1v1h-1zM5,24h1v1h-1zM6,24h1v1h-1zM7,24h1v1h-1zM8,24h1v1h-1zM9,24h1v1h-1zM10,24h1v1h-1zM12,24h1v1h-1zM13,24h1v1h-1zM16,24h1v1h-1zM17,24h1v1h-1zM19,24h1v1h-1zM20,24h1v1h-1zM21,24h1v1h-1zM22,24h1v1h-1zM23,24h1v1h-1zM24,24h1v1h-1zM27,24h1v1h-1zM28,24h1v1h-1zM29,24h1v1h-1zM30,24h1v1h-1zM31,24h1v1h-1zM32,24h1v1h-1zM12,25h1v1h-1zM14,25h1v1h-1zM16,25h1v1h-1zM18,25h1v1h-1zM20,25h1v1h-1zM23,25h1v1h-1zM25,25h1v1h-1zM26,25h1v1h-1zM28,25h1v1h-1zM30,25h1v1h-1zM31,25h1v1h-1zM32,25h1v1h-1zM4,26h1v1h-1zM5,26h1v1h-1zM6,26h1v1h-1zM7,26h1v1h-1zM8,26h1v1h-1zM9,26h1v1h-1zM10,26h1v1h-1zM12,26h1v1h-1zM13,26h1v1h-1zM15,26h1v1h-1zM16,26h1v1h-1zM17,26h1v1h-1zM18,26h1v1h-1zM19,26h1v1h-1zM20,26h1v1h-1zM21,26h1v1h-1zM22,26h1v1h-1zM23,26h1v1h-1zM24,26h1v1h-1zM26,26h1v1h-1zM27,26h1v1h-1zM28,26h1v1h-1zM29,26h1v1h-1zM30,26h1v1h-1zM31,26h1v1h-1zM32,26h1v1h-1zM4,27h1v1h-1zM10,27h1v1h-1zM13,27h1v1h-1zM14,27h1v1h-1zM16,27h1v1h-1zM20,27h1v1h-1zM22,27h1v1h-1zM24,27h1v1h-1zM26,27h1v1h-1zM32,27h1v1h-1zM4,28h1v1h-1zM6,28h1v1h-1zM7,28h1v1h-1zM8,28h1v1h-1zM10,28h1v1h-1zM12,28h1v1h-1zM14,28h1v1h-1zM15,28h1v1h-1zM16,28h1v1h-1zM17,28h1v1h-1zM18,28h1v1h-1zM19,28h1v1h-1zM20,28h1v1h-1zM21,28h1v1h-1zM23,28h1v1h-1zM24,28h1v1h-1zM26,28h1v1h-1zM28,28h1v1h-1zM29,28h1v1h-1zM30,28h1v1h-1zM32,28h1v1h-1zM4,29h1v1h-1zM6,29h1v1h-1zM7,29h1v1h-1zM8,29h1v1h-1zM10,29h1v1h-1zM12,29h1v1h-1zM13,29h1v1h-1zM15,29h1v1h-1zM18,29h1v1h-1zM21,29h1v1h-1zM24,29h1v1h-1zM26,29h1v1h-1zM28,29h1v1h-1zM29,29h1v1h-1zM30,29h1v1h-1zM32,29h1v1h-1zM4,30h1v1h-1zM6,30h1v1h-1zM7,30h1v1h-1zM8,30h1v1h-1zM10,30h1v1h-1zM12,30h1v1h-1zM14,30h1v1h-1zM16,30h1v1h-1zM17,30h1v1h-1zM18,30h1v1h-1zM20,30h1v1h-1zM21,30h1v1h-1zM22,30h1v1h-1zM24,30h1v1h-1zM26,30h1v1h-1zM28,30h1v1h-1zM29,30h1v1h-1zM30,30h1v1h-1zM32,30h1v1h-1zM4,31h1v1h-1zM10,31h1v1h-1zM12,31h1v1h-1zM13,31h1v1h-1zM14,31h1v1h-1zM17,31h1v1h-1zM19,31h1v1h-1zM21,31h1v1h-1zM22,31h1v1h-1zM23,31h1v1h-1zM24,31h1v1h-1zM26,31h1v1h-1zM32,31h1v1h-1zM4,32h1v1h-1zM5,32h1v1h-1zM6,32h1v1h-1zM7,32h1v1h-1zM8,32h1v1h-1zM9,32h1v1h-1zM10,32h1v1h-1zM12,32h1v1h-1zM14,32h1v1h-1zM17,32h1v1h-1zM18,32h1v1h-1zM21,32h1v1h-1zM24,32h1v1h-1zM25,32h1v1h-1zM27,32h1v1h-1zM28,32h1v1h-1zM31,32h1v1h-1z" fill="url(#g)"/>
</svg>