<?xml version="1.0" standalone="no"?>
<!DOCTYPE svg PUBLIC "-//W3C//DTD SVG 20010904//EN"
 "http://www.w3.org/TR/2001/REC-SVG-20010904/DTD/svg10.dtd">
<svg version="1.0" xmlns="http://www.w3.org/2000/svg"
 width="260.000000pt" height="260.000000pt" viewBox="0 0 260.000000 260.000000"
 preserveAspectRatio="xMidYMid meet">
<metadata>
Created by potrace 1.14, written by Peter Selinger 2001-2017
</metadata>
<g transform="translate(0.000000,260.000000) scale(0.100000,-0.100000)"
fill="#000000" stroke="none">
<path d="M1143 2411 c-104 -31 -156 -63 -220 -136 -51 -58 -114 -181 -140
-275 -25 -93 -25 -357 1 -455 30 -115 69 -186 136 -249 96 -88 213 -115 356
-81 177 41 286 146 312 297 l7 43 234 67 c129 37 239 65 244 61 16 -10 -1
-158 -27 -233 -70 -202 -277 -414 -526 -540 -31 -16 -62 -35 -68 -43 -13 -16
-7 -43 11 -50 17 -6 819 226 847 246 36 25 60 69 60 109 0 20 -34 155 -76 300
-41 145 -109 380 -150 523 -41 143 -78 262 -82 266 -4 4 -113 -24 -242 -61
-239 -69 -249 -71 -250 -28 0 38 -45 134 -81 173 -86 93 -192 113 -346 66z"/>
<path d="M282 1308 c-7 -7 -12 -23 -12 -37 0 -38 159 -591 182 -631 55 -99 92
-97 483 17 263 77 300 91 303 109 5 33 -18 45 -64 33 -69 -20 -267 -6 -360 24
-178 59 -332 199 -425 388 -47 97 -79 125 -107 97z"/>
<path d="M2343 902 l-52 -15 -24 -70 c-13 -39 -28 -72 -34 -74 -6 -2 -25 19
-43 47 -18 27 -38 50 -46 50 -26 0 -409 -112 -420 -124 -9 -8 -7 -59 8 -206
11 -107 24 -199 28 -203 4 -5 73 10 151 33 79 23 152 45 162 47 12 4 17 16 17
42 0 62 -6 64 -103 36 -106 -30 -103 -30 -111 -3 -8 31 3 39 86 63 l73 20 -3
45 c-2 25 -6 47 -8 49 -2 2 -37 -6 -78 -17 -41 -12 -77 -22 -80 -22 -3 0 -6
14 -6 30 0 17 2 30 5 30 21 0 181 53 186 61 4 7 32 -20 67 -65 47 -60 61 -86
66 -123 16 -116 12 -112 95 -87 l52 15 -6 82 -7 82 56 140 c31 77 56 143 56
147 0 11 -26 8 -87 -10z"/>
<path d="M1462 649 c-92 -45 -129 -119 -98 -193 20 -48 63 -66 161 -66 68 0
75 -2 75 -20 0 -34 -71 -55 -98 -28 -9 9 -24 9 -64 -1 -73 -19 -81 -26 -63
-62 55 -105 278 -61 344 68 21 41 14 100 -17 134 -27 30 -32 32 -120 37 -51 2
-95 9 -98 14 -17 28 67 53 92 28 12 -12 116 19 122 38 2 7 -12 28 -31 47 -31
31 -41 35 -89 35 -41 0 -70 -8 -116 -31z"/>
<path d="M1127 553 c-27 -8 -50 -20 -53 -26 -5 -16 -94 -427 -94 -438 0 -13
19 -11 78 6 45 14 52 19 52 41 0 27 32 46 102 59 31 6 37 4 43 -14 3 -12 11
-21 17 -21 24 0 118 32 118 41 0 5 -41 90 -90 189 -98 196 -90 189 -173 163z
m60 -200 c12 -31 20 -59 18 -64 -6 -9 -65 -23 -71 -16 -7 7 17 137 25 137 3 0
16 -25 28 -57z"/>
<path d="M773 460 c-82 -17 -145 -69 -182 -150 -26 -58 -26 -120 0 -198 26
-78 60 -104 138 -110 48 -3 65 1 121 30 49 25 71 44 93 80 27 43 48 128 32
128 -30 0 -117 -35 -122 -48 -19 -63 -63 -94 -102 -73 -26 14 -37 35 -46 88
-17 106 68 186 126 119 21 -24 22 -24 73 -9 28 8 54 18 58 21 4 4 -1 26 -12
49 -28 62 -94 89 -177 73z"/>
</g>
</svg>
