<?xml version="1.0" standalone="no"?>
<!DOCTYPE svg PUBLIC "-//W3C//DTD SVG 20010904//EN"
 "http://www.w3.org/TR/2001/REC-SVG-20010904/DTD/svg10.dtd">
<svg version="1.0" xmlns="http://www.w3.org/2000/svg"
 width="1284.000000pt" height="1284.000000pt" viewBox="0 0 1284.000000 1284.000000"
 preserveAspectRatio="xMidYMid meet">
<metadata>
Created by potrace 1.14, written by Peter Selinger 2001-2017
</metadata>
<g transform="translate(0.000000,1284.000000) scale(0.100000,-0.100000)"
fill="#000000" stroke="none">
<path d="M5220 9907 c-3 -3 -27 -7 -55 -10 -66 -8 -203 -56 -290 -102 -81 -43
-108 -58 -115 -66 -3 -3 -37 -31 -76 -62 -148 -119 -276 -310 -330 -496 -28
-96 -29 -100 -40 -226 -9 -109 -9 -5067 0 -5180 4 -44 11 -96 17 -116 58 -225
141 -372 290 -519 72 -71 88 -84 204 -158 30 -19 144 -73 163 -77 9 -2 47 -13
85 -24 85 -25 132 -31 282 -36 190 -7 532 -12 506 -7 -13 2 -31 10 -38 18 -8
8 -22 14 -32 14 -42 0 -269 99 -279 123 -2 4 -9 7 -15 7 -7 0 -32 19 -57 41
-25 23 -56 48 -69 57 -52 35 -177 201 -229 304 -29 57 -52 109 -52 116 0 7 -4
20 -9 30 -14 25 -39 119 -48 177 -4 28 -8 1234 -8 2680 l0 2630 23 88 c42 159
127 340 189 405 16 15 42 44 58 64 17 19 39 39 50 45 23 12 45 7 45 -10 0 -5
22 -41 50 -79 68 -93 121 -189 157 -284 76 -201 72 -17 72 -2889 0 -1413 3
-2583 7 -2600 3 -16 7 -43 9 -60 6 -71 47 -201 89 -284 51 -102 56 -110 125
-195 99 -122 198 -204 325 -271 72 -38 196 -89 196 -80 0 2 17 -2 39 -10 21
-7 63 -16 92 -19 30 -3 65 -8 79 -11 27 -6 2396 -7 2445 -1 79 10 125 19 192
41 40 12 73 21 73 19 0 -2 44 19 98 47 115 61 171 99 257 176 25 22 112 126
142 170 28 40 122 225 126 250 2 10 7 25 10 33 30 82 41 165 41 310 -1 89 -3
115 -19 215 -16 96 -108 288 -193 400 -50 68 -157 172 -217 213 -22 15 -42 29
-45 32 -18 18 -206 107 -240 114 -8 1 -40 10 -70 18 -30 9 -62 16 -70 16 -8 0
-26 3 -39 6 -66 15 -285 20 -921 19 -1641 -2 -1557 -3 -1685 13 -38 4 -74 8
-80 9 -5 0 -19 8 -30 18 -20 18 -20 32 -22 1790 -2 2038 -4 2231 -28 2337 -22
101 -45 172 -77 233 -57 112 -98 175 -157 239 -9 9 -21 23 -27 30 -18 22 -86
81 -142 125 -96 77 -293 165 -425 191 -48 10 -299 17 -307 9z m1230 -5677 c19
-6 51 -13 70 -16 19 -2 46 -7 60 -10 57 -11 372 -15 1420 -18 608 -2 1116 -5
1130 -9 14 -3 43 -8 65 -11 39 -5 55 -9 93 -23 9 -3 26 -8 36 -10 75 -14 404
-216 406 -249 1 -33 -131 -146 -240 -205 -87 -48 -237 -102 -310 -113 -109
-17 -300 -20 -1350 -20 -1233 -1 -1303 1 -1387 40 -51 23 -47 -10 -58 396 -3
114 -3 218 1 232 7 29 14 31 64 16z"/>
<path d="M2589 9444 c-5 -136 -1 -166 22 -182 38 -28 149 -105 238 -166 172
-117 187 -131 170 -153 -6 -7 -101 -74 -210 -149 -109 -75 -203 -142 -208
-148 -15 -18 -19 -206 -4 -206 11 0 101 55 113 70 3 3 50 36 105 73 152 102
259 175 270 184 25 19 102 71 125 84 19 11 88 15 280 19 l255 5 3 75 c1 41 -2
81 -7 89 -7 11 -55 13 -242 13 -129 0 -247 3 -264 7 -16 5 -80 44 -142 87
-181 128 -470 323 -487 330 -13 5 -16 -1 -17 -32z"/>
<path d="M2601 8081 c-11 -7 -14 -82 -13 -420 0 -227 3 -415 7 -419 10 -10
1127 -13 1143 -3 11 6 13 90 12 416 0 255 -4 413 -10 420 -15 18 -148 14 -160
-5 -5 -8 -9 -153 -9 -323 0 -228 -4 -313 -13 -324 -9 -12 -37 -14 -144 -11
-78 2 -138 8 -144 14 -7 7 -11 88 -11 235 1 123 -4 231 -9 239 -13 21 -144 24
-161 4 -9 -11 -12 -76 -11 -240 0 -187 -2 -227 -15 -240 -12 -12 -41 -14 -144
-13 -118 1 -130 3 -140 21 -7 12 -11 130 -12 324 0 168 -4 307 -9 310 -5 3 -6
10 -3 15 8 12 -135 12 -154 0z"/>
<path d="M3285 6894 c-66 -21 -119 -60 -147 -109 -12 -22 -23 -44 -25 -50 -1
-5 -7 -30 -13 -55 -11 -45 -15 -95 -25 -330 -9 -200 -18 -230 -82 -251 -44
-14 -147 -5 -180 17 -50 32 -58 71 -58 289 0 243 4 255 90 280 44 12 55 20 56
38 3 37 -1 121 -6 135 -12 32 -144 -3 -204 -55 -40 -34 -85 -114 -96 -169 -19
-104 -26 -167 -25 -238 1 -73 5 -105 25 -225 6 -35 45 -124 68 -152 6 -8 33
-31 58 -51 56 -42 138 -62 236 -56 82 4 142 31 202 90 77 75 90 123 96 363 8
287 17 337 67 354 70 25 178 8 220 -34 34 -34 43 -92 42 -265 -2 -245 -2 -244
-27 -281 -19 -29 -32 -36 -80 -45 -32 -7 -61 -15 -64 -18 -4 -3 -7 -36 -8 -72
-2 -78 9 -94 63 -90 95 7 181 55 227 127 52 80 69 174 69 369 0 136 -4 168
-36 279 -41 141 -151 216 -320 219 -41 1 -95 -6 -123 -14z"/>
<path d="M3620 5597 c-58 -22 -123 -48 -145 -57 -22 -9 -80 -32 -130 -50 -49
-17 -99 -36 -110 -41 -46 -19 -203 -79 -209 -79 -3 0 -25 -8 -49 -19 -23 -10
-55 -24 -72 -30 -16 -6 -43 -16 -60 -22 -16 -7 -32 -13 -35 -14 -12 -4 -47
-18 -75 -30 -16 -7 -51 -20 -77 -30 -26 -10 -53 -24 -59 -32 -18 -20 -16 -191
2 -207 8 -8 109 -50 224 -95 116 -45 228 -90 250 -99 21 -9 42 -17 45 -18 3 0
19 -6 35 -13 17 -6 44 -16 60 -22 17 -6 44 -17 60 -24 17 -7 62 -24 100 -38
39 -14 99 -37 135 -52 156 -63 223 -85 235 -75 14 11 10 135 -6 165 -9 18
-136 75 -167 75 -5 0 -21 13 -35 29 l-24 29 1 251 c1 284 -5 264 91 301 142
54 145 56 147 125 2 71 -3 103 -15 108 -6 2 -59 -14 -117 -36z m-298 -335 c13
-13 18 -307 5 -338 -6 -14 -17 -20 -30 -19 -18 3 -139 47 -272 100 -63 25
-100 39 -102 37 -2 -1 -17 6 -35 17 -56 30 -48 45 44 80 46 18 92 36 103 41
11 5 47 19 80 31 33 12 78 29 100 39 71 31 86 33 107 12z"/>
<path d="M3530 4196 c-40 -55 -43 -72 -14 -106 39 -47 56 -97 63 -184 11 -138
-1 -331 -22 -352 -4 -4 -7 -15 -7 -24 0 -33 -73 -95 -136 -116 -49 -16 -87
-19 -234 -19 -236 0 -292 14 -357 89 -53 59 -72 157 -67 348 2 90 7 124 30
189 l28 80 -25 22 c-13 13 -41 35 -61 51 l-37 28 -25 -26 c-13 -15 -29 -41
-36 -59 -7 -17 -16 -41 -20 -52 -8 -19 -16 -53 -28 -115 -2 -14 -6 -81 -8
-150 -6 -200 33 -340 121 -438 70 -77 193 -133 326 -147 67 -7 239 -8 274 -1
11 2 43 7 70 10 219 30 363 180 392 406 6 48 8 239 3 288 -8 72 -39 181 -65
231 -21 41 -84 101 -106 101 -11 0 -35 -22 -59 -54z"/>
</g>
</svg>
